<?xml version="1.0" ?><svg data-name="Layer 1" id="Layer_1" viewBox="0 0 32 32" xmlns="http://www.w3.org/2000/svg"><path d="M29,19H3a3,3,0,0,1-3-3V7A1,1,0,0,1,1,6H31a1,1,0,0,1,1,1v9A3,3,0,0,1,29,19ZM2,8v8a1,1,0,0,0,1,1H29a1,1,0,0,0,1-1V8Z"/><path d="M29,30H3a1,1,0,0,1-1-1V18a1,1,0,0,1,2,0V28H28V18a1,1,0,0,1,2,0V29A1,1,0,0,1,29,30Z"/><path d="M21,8a1,1,0,0,1-1-1V5a1,1,0,0,0-1-1H13a1,1,0,0,0-1,1V7a1,1,0,0,1-2,0V5a3,3,0,0,1,3-3h6a3,3,0,0,1,3,3V7A1,1,0,0,1,21,8Z"/><path d="M16,22a1,1,0,0,1-1-1V15a1,1,0,0,1,2,0v6A1,1,0,0,1,16,22Z"/></svg>